<svg xmlns="http://www.w3.org/2000/svg" viewBox="0 0 512 512" width="512" height="512" role="img" aria-label="Shift">
  <defs>
    <path id="s" fill="none" stroke-width="44" d="M141.4 47A64 50 0 0 0 30.6 97L141.4 103A64 50 0 0 1 30.6 153"/>
    <g id="sm" transform="translate(137.3 118) scale(1.38)"><use href="#s"/></g>
    <linearGradient id="tile" x1="0" y1="0" x2="0" y2="1">
      <stop offset="0" stop-color="#16223E"/><stop offset="1" stop-color="#0A1122"/>
    </linearGradient>
    <clipPath id="tileclip"><rect width="512" height="512" rx="0"/></clipPath>
    <clipPath id="sm-b0"><rect x="-400" y="142.84" width="4000" height="13"/></clipPath><clipPath id="sm-b1"><rect x="-400" y="174.58" width="4000" height="9"/></clipPath><clipPath id="sm-b2"><rect x="-400" y="206.32" width="4000" height="15"/></clipPath><clipPath id="sm-b3"><rect x="-400" y="246.34" width="4000" height="8"/></clipPath><clipPath id="sm-b4"><rect x="-400" y="262.9" width="4000" height="12"/></clipPath><clipPath id="sm-b5"><rect x="-400" y="293.26" width="4000" height="10"/></clipPath><clipPath id="sm-b6"><rect x="-400" y="320.86" width="4000" height="14"/></clipPath><clipPath id="sm-b7"><rect x="-400" y="351.22" width="4000" height="8"/></clipPath><clipPath id="sm-b8"><rect x="-400" y="370.54" width="4000" height="11"/></clipPath>
  </defs>
  <rect width="512" height="512" rx="0" fill="url(#tile)"/>
  <g clip-path="url(#tileclip)" fill="#FFFFFF" opacity=".032"><rect y="0" width="512" height="4"/><rect y="8" width="512" height="4"/><rect y="16" width="512" height="4"/><rect y="24" width="512" height="4"/><rect y="32" width="512" height="4"/><rect y="40" width="512" height="4"/><rect y="48" width="512" height="4"/><rect y="56" width="512" height="4"/><rect y="64" width="512" height="4"/><rect y="72" width="512" height="4"/><rect y="80" width="512" height="4"/><rect y="88" width="512" height="4"/><rect y="96" width="512" height="4"/><rect y="104" width="512" height="4"/><rect y="112" width="512" height="4"/><rect y="120" width="512" height="4"/><rect y="128" width="512" height="4"/><rect y="136" width="512" height="4"/><rect y="144" width="512" height="4"/><rect y="152" width="512" height="4"/><rect y="160" width="512" height="4"/><rect y="168" width="512" height="4"/><rect y="176" width="512" height="4"/><rect y="184" width="512" height="4"/><rect y="192" width="512" height="4"/><rect y="200" width="512" height="4"/><rect y="208" width="512" height="4"/><rect y="216" width="512" height="4"/><rect y="224" width="512" height="4"/><rect y="232" width="512" height="4"/><rect y="240" width="512" height="4"/><rect y="248" width="512" height="4"/><rect y="256" width="512" height="4"/><rect y="264" width="512" height="4"/><rect y="272" width="512" height="4"/><rect y="280" width="512" height="4"/><rect y="288" width="512" height="4"/><rect y="296" width="512" height="4"/><rect y="304" width="512" height="4"/><rect y="312" width="512" height="4"/><rect y="320" width="512" height="4"/><rect y="328" width="512" height="4"/><rect y="336" width="512" height="4"/><rect y="344" width="512" height="4"/><rect y="352" width="512" height="4"/><rect y="360" width="512" height="4"/><rect y="368" width="512" height="4"/><rect y="376" width="512" height="4"/><rect y="384" width="512" height="4"/><rect y="392" width="512" height="4"/><rect y="400" width="512" height="4"/><rect y="408" width="512" height="4"/><rect y="416" width="512" height="4"/><rect y="424" width="512" height="4"/><rect y="432" width="512" height="4"/><rect y="440" width="512" height="4"/><rect y="448" width="512" height="4"/><rect y="456" width="512" height="4"/><rect y="464" width="512" height="4"/><rect y="472" width="512" height="4"/><rect y="480" width="512" height="4"/><rect y="488" width="512" height="4"/><rect y="496" width="512" height="4"/><rect y="504" width="512" height="4"/></g>
  <g stroke-width="0">
    <use href="#sm" transform="translate(13 -7)" stroke="#34D399" opacity=".95"/>
    <use href="#sm" transform="translate(-13 7)" stroke="#7C4DEF" opacity=".95"/>
    <use href="#sm" stroke="#DDD6FE"/>
  <g clip-path="url(#sm-b0)"><use href="#sm" transform="translate(16 0)" fill="#34D399" stroke="#34D399"/></g>
  <g clip-path="url(#sm-b1)"><use href="#sm" transform="translate(-13 0)" fill="#7C4DEF" stroke="#7C4DEF"/></g>
  <g clip-path="url(#sm-b2)"><use href="#sm" transform="translate(11 0)" fill="#DDD6FE" stroke="#DDD6FE"/></g>
  <g clip-path="url(#sm-b3)"><use href="#sm" transform="translate(-18 0)" fill="#34D399" stroke="#34D399"/></g>
  <g clip-path="url(#sm-b4)"><use href="#sm" transform="translate(14 0)" fill="#DDD6FE" stroke="#DDD6FE"/></g>
  <g clip-path="url(#sm-b5)"><use href="#sm" transform="translate(-11 0)" fill="#7C4DEF" stroke="#7C4DEF"/></g>
  <g clip-path="url(#sm-b6)"><use href="#sm" transform="translate(18 0)" fill="#DDD6FE" stroke="#DDD6FE"/></g>
  <g clip-path="url(#sm-b7)"><use href="#sm" transform="translate(-14 0)" fill="#34D399" stroke="#34D399"/></g>
  <g clip-path="url(#sm-b8)"><use href="#sm" transform="translate(10 0)" fill="#DDD6FE" stroke="#DDD6FE"/></g>
  </g>
</svg>
