<svg xmlns="http://www.w3.org/2000/svg" width="101" height="100" fill="none" viewBox="0 0 101 100"><path fill="#f90" d="M69.265 65.982C48.215 76 35.152 67.618 26.79 62.527c-.517-.32-1.397.075-.634.952 2.786 3.378 11.916 11.52 23.834 11.52 11.925 0 19.02-6.507 19.907-7.642.882-1.126.26-1.747-.632-1.375m5.912-3.265c-.565-.736-3.437-.873-5.245-.651-1.81.215-4.527 1.322-4.29 1.986.12.249.368.137 1.612.025 1.246-.124 4.74-.565 5.468.387.73.958-1.114 5.522-1.451 6.258-.326.736.124.926.736.436.603-.49 1.695-1.76 2.428-3.555.728-1.806 1.172-4.325.742-4.886"/><path fill="#000" fill-rule="evenodd" d="M55.112 45.541c0 2.629.066 4.82-1.262 7.155-1.072 1.898-2.771 3.065-4.669 3.065-2.59 0-4.1-1.974-4.1-4.887 0-5.75 5.153-6.794 10.03-6.794zm6.804 16.445c-.446.399-1.092.427-1.594.161-2.24-1.86-2.639-2.723-3.872-4.498-3.701 3.777-6.32 4.906-11.122 4.906-5.674 0-10.096-3.501-10.096-10.514 0-5.475 2.97-9.205 7.192-11.026 3.663-1.614 8.778-1.898 12.688-2.344v-.873c0-1.604.123-3.502-.816-4.887-.826-1.244-2.401-1.756-3.787-1.756-2.571 0-4.868 1.319-5.428 4.052-.114.607-.56 1.205-1.167 1.234l-6.547-.702c-.55-.124-1.158-.57-1.006-1.415C37.87 26.392 45.034 24 51.449 24c3.283 0 7.572.873 10.163 3.36 3.283 3.064 2.97 7.154 2.97 11.605v10.514c0 3.16 1.31 4.545 2.543 6.254.437.607.532 1.338-.019 1.793a285 285 0 0 0-5.171 4.48z" clip-rule="evenodd"/><path fill="#f90" d="M69.265 65.982C48.215 76 35.152 67.618 26.79 62.527c-.517-.32-1.397.075-.634.952 2.786 3.378 11.916 11.52 23.834 11.52 11.925 0 19.02-6.507 19.907-7.642.882-1.126.26-1.747-.632-1.375m5.912-3.265c-.565-.736-3.437-.873-5.245-.651-1.81.215-4.527 1.322-4.29 1.986.12.249.368.137 1.612.025 1.246-.124 4.74-.565 5.468.387.73.958-1.114 5.522-1.451 6.258-.326.736.124.926.736.436.603-.49 1.695-1.76 2.428-3.555.728-1.806 1.172-4.325.742-4.886"/><path fill="#000" fill-rule="evenodd" d="M55.112 45.541c0 2.629.066 4.82-1.262 7.155-1.072 1.898-2.771 3.065-4.669 3.065-2.59 0-4.1-1.974-4.1-4.887 0-5.75 5.153-6.794 10.03-6.794zm6.804 16.445c-.446.399-1.092.427-1.594.161-2.24-1.86-2.639-2.723-3.872-4.498-3.701 3.777-6.32 4.906-11.122 4.906-5.674 0-10.096-3.501-10.096-10.514 0-5.475 2.97-9.205 7.192-11.026 3.663-1.614 8.778-1.898 12.688-2.344v-.873c0-1.604.123-3.502-.816-4.887-.826-1.244-2.401-1.756-3.787-1.756-2.571 0-4.868 1.319-5.428 4.052-.114.607-.56 1.205-1.167 1.234l-6.547-.702c-.55-.124-1.158-.57-1.006-1.415C37.87 26.392 45.034 24 51.449 24c3.283 0 7.572.873 10.163 3.36 3.283 3.064 2.97 7.154 2.97 11.605v10.514c0 3.16 1.31 4.545 2.543 6.254.437.607.532 1.338-.019 1.793a285 285 0 0 0-5.171 4.48z" clip-rule="evenodd"/></svg>