<svg xmlns="http://www.w3.org/2000/svg" width="100" height="101" fill="none" viewBox="0 0 100 101"><path fill="#1434cb" d="M59.071 40.473c-4.256 0-8.059 2.206-8.059 6.281 0 4.674 6.745 4.997 6.745 7.346 0 .988-1.133 1.873-3.068 1.873-2.746 0-4.799-1.236-4.799-1.236l-.878 4.113s2.364 1.044 5.503 1.044c4.653 0 8.315-2.314 8.315-6.46 0-4.938-6.773-5.252-6.773-7.43 0-.776.93-1.624 2.86-1.624 2.177 0 3.953.9 3.953.9l.86-3.973s-1.933-.834-4.659-.834m-38.938.3-.103.6s1.79.327 3.403.98c2.077.75 2.224 1.187 2.574 2.542l3.81 14.69h5.109l7.87-18.812h-5.097l-5.057 12.79-2.063-10.842c-.189-1.24-1.148-1.949-2.32-1.949zm24.712 0-3.998 18.812h4.86l3.984-18.812zm27.106 0c-1.172 0-1.793.627-2.248 1.724l-7.12 17.088h5.096l.986-2.849h6.208l.6 2.849h4.497l-3.923-18.812zm.663 5.082 1.51 7.06h-4.046z"/></svg>